<svg viewBox="0 0 400 300" xmlns="http://www.w3.org/2000/svg"><path d="m133.78 118.11h121.79a6.28 6.28 0 0 1 6.28 6.28v13.13a0 0 0 0 1 0 0h-128.07a9.7 9.7 0 0 1 -9.7-9.7 9.7 9.7 0 0 1 9.7-9.7z" fill="#093f68"/><path d="m261.84 138.51h-128.06a10.7 10.7 0 1 1 0-21.4h121.79a7.28 7.28 0 0 1 7.27 7.27v13.13a1 1 0 0 1 -1 1zm-128.06-19.4a8.7 8.7 0 1 0 0 17.4h127.06v-12.13a5.27 5.27 0 0 0 -5.27-5.27z" fill="#093f68"/><path d="m135.71 93.8h109.43v58.72h-109.43z" fill="#70cc40" transform="matrix(.94046622 -.33988717 .33988717 .94046622 -30.53 72.07)"/><path d="m149 170.38a1 1 0 0 1 -.94-.66l-20-55.23a1 1 0 0 1 0-.76 1 1 0 0 1 .57-.52l102.93-37.21a1 1 0 0 1 .77 0 1 1 0 0 1 .51.56l20 55.23a1 1 0 0 1 -.6 1.28l-102.91 37.2a1 1 0 0 1 -.33.11zm-18.68-55.63 19.28 53.35 101-36.52-19.3-53.35z" fill="#093f68"/><path d="m143.62 104.76h109.43v58.72h-109.43z" fill="#70cc40" transform="matrix(.98002896 -.19885482 .19885482 .98002896 -22.71 42.12)"/><path d="m150.55 174.78a1 1 0 0 1 -1-.8l-11.68-57.55a1 1 0 0 1 .14-.75 1 1 0 0 1 .64-.43l107.26-21.76a1 1 0 0 1 1.18.78l11.68 57.55a1 1 0 0 1 -.15.75 1 1 0 0 1 -.63.43l-107.24 21.76zm-10.5-57.78 11.28 55.59 105.28-21.36-11.28-55.6z" fill="#093f68"/><path d="m194.28 119.07c.19 1 .39 1.92.57 2.89 0 .18.1.23.29.24a8.71 8.71 0 0 1 4.21 1 6.28 6.28 0 0 1 2.93 3.38c.15.39.27.8.4 1.22l-4.45.88a3.08 3.08 0 0 0 -1-1.71 15.13 15.13 0 0 0 -1.41-.81l-.06.08 1.1 5.55h.5a16.09 16.09 0 0 1 3.72.43 5.17 5.17 0 0 1 3.87 3.63 6.79 6.79 0 0 1 -.2 5.07 6.88 6.88 0 0 1 -2.83 3.11c-.77.45-1.59.81-2.42 1.22l.42 2.16-4.1.81-.44-2.22c-.87-.06-1.7-.08-2.51-.19a7.06 7.06 0 0 1 -4.2-2 6.87 6.87 0 0 1 -1.81-3.6l4.39-.87a3.53 3.53 0 0 0 3.32 2.73q-.58-3-1.17-6c-.88-.07-1.76-.13-2.64-.23a6.37 6.37 0 0 1 -3-1 5.11 5.11 0 0 1 -2-2.48 7.16 7.16 0 0 1 -.48-3.88 6.48 6.48 0 0 1 3.12-4.48 19.47 19.47 0 0 1 2.11-1l.26-.11-.59-3zm4.41 22.26a3.66 3.66 0 0 0 1.68-1.16 2.42 2.42 0 0 0 -.24-3.2 4.79 4.79 0 0 0 -2.45-.74zm-7.18-14.64a12.82 12.82 0 0 0 -1.41 1.11 2.23 2.23 0 0 0 .4 3.39 4.85 4.85 0 0 0 2 .46z" fill="#093f68"/><circle cx="150.06" cy="134.49" fill="#ffbc0e" r="16.44"/><path d="m150.06 151.94a17.45 17.45 0 1 1 17.44-17.45 17.46 17.46 0 0 1 -17.44 17.45zm0-32.89a15.45 15.45 0 1 0 15.44 15.44 15.46 15.46 0 0 0 -15.44-15.44z" fill="#093f68"/><path d="m179.55 101.65c-1.07-4-4.21-8.05-8.84-10.9s-9.71-3.75-13.71-2.95l-2.73-1.68-3.53 5.76c-3.3 5.37.3 13.57 8 18.32s16.69 4.25 20-1.12l3.53-5.75z" fill="#ffbc0e"/><path d="m169.54 114.46a21.93 21.93 0 0 1 -11.29-3.4c-8.2-5-12-13.88-8.38-19.71l3.53-5.75a1 1 0 0 1 1.38-.33l2.4 1.48c4.39-.79 9.48.35 14 3.15s7.89 6.84 9.18 11.11l2.4 1.47a1.06 1.06 0 0 1 .45.62 1 1 0 0 1 -.12.75l-3.54 5.75c-1.77 2.89-5 4.61-9.12 4.84zm-14.95-27-3 4.9c-3 4.89.46 12.5 7.71 16.95a19.56 19.56 0 0 0 11.08 3.09c3.44-.19 6.11-1.57 7.53-3.88l3-4.9-1.91-1.11a1 1 0 0 1 -.44-.59c-1.05-3.87-4.19-7.73-8.4-10.31s-9.07-3.65-13-2.83a1 1 0 0 1 -.73-.13z" fill="#093f68"/><ellipse cx="168.27" cy="94.73" fill="#ffbc0e" rx="11.41" ry="16.44" transform="matrix(.52324243 -.85218387 .85218387 .52324243 -.5 188.57)"/><path d="m173.05 108.69a21.81 21.81 0 0 1 -11.27-3.39c-8.2-5-12-13.87-8.38-19.7s13.17-6.48 21.36-1.45 12 13.87 8.38 19.7c-1.97 3.2-5.74 4.84-10.09 4.84zm-9.61-26c-3.64 0-6.74 1.32-8.33 3.92-3 4.89.46 12.5 7.71 16.95s15.61 4.1 18.61-.79c3-4.9-.46-12.5-7.71-17a20.06 20.06 0 0 0 -10.28-3.04z" fill="#093f68"/><path d="m237.39 113.13c1.07-4 4.21-8 8.84-10.9s9.7-3.79 13.72-3l2.73-1.68 3.54 5.75c3.29 5.37-.31 13.58-8.05 18.33s-16.68 4.25-20-1.12l-3.53-5.75z" fill="#ffbc0e"/><path d="m247.41 125.94h-.95c-4.11-.24-7.35-2-9.12-4.84l-3.53-5.75a1 1 0 0 1 .33-1.37l2.4-1.48c1.28-4.27 4.6-8.29 9.17-11.1s9.66-3.95 14-3.16l2.4-1.47a1 1 0 0 1 1.38.33l3.53 5.75c1.77 2.89 1.83 6.55.18 10.32a21.51 21.51 0 0 1 -8.55 9.38 21.9 21.9 0 0 1 -11.24 3.39zm-11.41-10.8 3 4.9c1.42 2.31 4.09 3.69 7.53 3.88a20.92 20.92 0 0 0 18.85-11.57c1.38-3.15 1.36-6.16-.06-8.47l-3-4.9-1.88 1.15a1 1 0 0 1 -.73.13c-3.92-.82-8.78.24-13 2.82s-7.35 6.45-8.4 10.31a.94.94 0 0 1 -.44.59z" fill="#093f68"/><ellipse cx="248.67" cy="106.21" fill="#ffbc0e" rx="16.44" ry="11.41" transform="matrix(.85218387 -.52324243 .52324243 .85218387 -18.82 145.8)"/><path d="m243.88 120.19c-.32 0-.64 0-.95 0-4.11-.23-7.35-1.94-9.12-4.83s-1.84-6.55-.18-10.32a22.88 22.88 0 0 1 20.79-12.76c4.11.23 7.35 1.94 9.12 4.83 3.58 5.83-.18 14.67-8.37 19.7a21.9 21.9 0 0 1 -11.29 3.38zm9.58-26a20 20 0 0 0 -10.24 3.11 19.54 19.54 0 0 0 -7.76 8.48c-1.39 3.16-1.37 6.17 0 8.48 1.42 2.31 4.09 3.68 7.53 3.88a19.54 19.54 0 0 0 11.08-3.09c7.26-4.46 10.72-12.06 7.71-17-1.42-2.31-4.09-3.69-7.53-3.89z" fill="#093f68"/><path d="m269.8 145.47v69.62a8 8 0 0 1 -8 8h-123.59a14.14 14.14 0 0 1 -14.14-14.14v-81.1a9.71 9.71 0 0 0 9.71 9.71h128.06a8 8 0 0 1 7.96 7.91z" fill="#68e1fd"/><path d="m261.84 224.05h-123.63a15.15 15.15 0 0 1 -15.14-15.14v-81.1a1 1 0 0 1 2 0 8.72 8.72 0 0 0 8.71 8.71h128.06a9 9 0 0 1 9 8.95v69.62a9 9 0 0 1 -9 8.96zm-136.77-90.05v74.88a13.16 13.16 0 0 0 13.14 13.14h123.63a7 7 0 0 0 7-7v-69.55a7 7 0 0 0 -7-6.95h-128.06a10.68 10.68 0 0 1 -8.71-4.52z" fill="#093f68"/><path d="m245.78 170.52h30.15a0 0 0 0 1 0 0v26.42a0 0 0 0 1 0 0h-30.15a8.69 8.69 0 0 1 -8.69-8.69v-9a8.69 8.69 0 0 1 8.69-8.73z" fill="#f56132"/><path d="m275.93 197.94h-30.15a9.71 9.71 0 0 1 -9.7-9.69v-9a9.71 9.71 0 0 1 9.7-9.69h30.15a1 1 0 0 1 1 1v26.42a1 1 0 0 1 -1 .96zm-30.15-26.42a7.71 7.71 0 0 0 -7.7 7.69v9a7.71 7.71 0 0 0 7.7 7.69h29.15v-24.38z" fill="#093f68"/><circle cx="250.44" cy="183.73" fill="#ffbc0e" r="6.07"/><g fill="#093f68"><path d="m250.44 190.8a7.07 7.07 0 1 1 7.07-7.07 7.08 7.08 0 0 1 -7.07 7.07zm0-12.14a5.07 5.07 0 1 0 5.07 5.07 5.07 5.07 0 0 0 -5.07-5.07z"/><path d="m145.34 224.05a1 1 0 0 1 -1-1v-85.53a1 1 0 0 1 2 0v85.53a1 1 0 0 1 -1 1z"/></g></svg>